<svg width="88" height="88" viewBox="0 0 88 88" fill="none" xmlns="http://www.w3.org/2000/svg">
<g opacity="0.6" clip-path="url(#clip0_266_7)">
<path d="M43.7322 5.95529C10.0954 5.94441 -6.75205 46.6061 17.0259 70.3914C22.3047 75.6715 29.0307 79.2676 36.3533 80.725C43.676 82.1823 51.2663 81.4354 58.1644 78.5786C65.0625 75.7219 70.9586 70.8837 75.1068 64.6759C79.2551 58.4681 81.4692 51.1695 81.4693 43.7033C81.4693 22.8608 64.5783 5.96255 43.7322 5.95529ZM22.3563 24.7839C24.1742 15.3569 36.4823 12.8314 41.8635 20.7816C47.2446 28.7318 40.3322 39.222 30.9052 37.4077C29.5148 37.1406 28.1906 36.6021 27.0083 35.8231C25.8261 35.044 24.8089 34.0396 24.015 32.8672C23.2211 31.6949 22.666 30.3776 22.3813 28.9906C22.0967 27.6036 22.0882 26.1742 22.3563 24.7839ZM38.039 57.3975C36.2102 66.8209 23.9021 69.3282 18.5282 61.3744C13.1543 53.4206 20.0776 42.9413 29.5046 44.7592C30.8952 45.0278 32.2192 45.568 33.4009 46.3487C34.5826 47.1295 35.5989 48.1355 36.3915 49.3093C37.1841 50.4831 37.7376 51.8016 38.0203 53.1894C38.303 54.5772 38.3093 56.0072 38.039 57.3975ZM42.611 48.6708C38.4309 47.8616 37.306 42.4042 40.8293 40.0094C44.349 37.6145 49.0154 40.6625 48.2316 44.8499C48.1154 45.4704 47.8776 46.0619 47.532 46.5902C47.1864 47.1186 46.7397 47.5734 46.2177 47.9285C45.6957 48.2835 45.1086 48.5319 44.4903 48.6593C43.8719 48.7867 43.2308 48.7906 42.611 48.6708ZM65.1045 62.5972C63.2865 72.0242 50.9784 74.5461 45.5973 66.5995C40.2161 58.653 47.1249 48.1591 56.5555 49.9698C57.9464 50.2369 59.2709 50.7755 60.4534 51.5548C61.636 52.3341 62.6533 53.3389 63.4472 54.5116C64.2412 55.6843 64.7962 57.0021 65.0806 58.3895C65.3649 59.7769 65.3731 61.2067 65.1045 62.5972ZM57.9671 42.6328C48.54 40.8149 46.0182 28.4959 53.9684 23.1112C61.9186 17.7264 72.4051 24.6424 70.5945 34.0694C70.329 35.4615 69.7917 36.7876 69.0131 37.9718C68.2345 39.156 67.2299 40.1749 66.057 40.9704C64.8841 41.7658 63.5658 42.3221 62.1776 42.6073C60.7894 42.8926 59.3586 42.9013 57.9671 42.6328ZM49.498 84.5863L57.7131 86.7998C61.1674 87.7163 64.8443 87.2237 67.9355 85.4301C71.0267 83.6364 73.2792 80.6887 74.1976 77.2349L76.5199 68.519C69.9826 77.229 60.2692 83.0039 49.4944 84.5863M77.2275 13.2306L68.6532 10.9482C72.9857 14.2818 76.6132 18.4424 79.3252 23.1888C82.0372 27.9352 83.7798 33.1728 84.452 38.5979L86.8105 29.6752C87.7132 26.224 87.2111 22.5557 85.4142 19.4739C83.6173 16.3922 80.6721 14.1484 77.2239 13.2342M2.62417 50.2782L0.661113 57.6805C-0.25547 61.1348 0.237201 64.8118 2.03082 67.903C3.82443 70.9942 6.77218 73.2466 10.226 74.1651L17.8714 76.2043C9.70908 69.787 4.2675 60.5303 2.62417 50.2782ZM37.7668 2.71861L29.7586 0.628555C28.0469 0.172604 26.2622 0.0584623 24.5065 0.292655C22.7507 0.526848 21.0583 1.10478 19.526 1.99342C17.9937 2.88206 16.6516 4.06398 15.5763 5.47162C14.5011 6.87926 13.7138 8.48501 13.2595 10.1971L11.2602 17.7518C17.8568 9.54377 27.3365 4.16611 37.7668 2.71861Z" fill="white"/>
</g>
<defs>
<clipPath id="clip0_266_7">
<rect width="87.0856" height="87.0856" fill="white" transform="translate(0.185791 0.171387)"/>
</clipPath>
</defs>
</svg>
