<svg width="106" height="106" viewBox="0 0 106 106" fill="none" xmlns="http://www.w3.org/2000/svg">
<g opacity="0.6">
<path d="M60.1154 53.7819C60.0889 55.1735 59.6498 56.5259 58.8538 57.6676C58.0578 58.8094 56.9407 59.6891 55.6442 60.1953C54.3476 60.7014 52.93 60.8113 51.571 60.5108C50.212 60.2104 48.9727 59.5132 48.0104 58.5077C47.048 57.5021 46.4059 56.2335 46.1653 54.8626C45.9248 53.4917 46.0967 52.0803 46.6592 50.8072C47.2218 49.5341 48.1497 48.4567 49.3252 47.7115C50.5008 46.9664 51.8712 46.587 53.2626 46.6216C55.1115 46.69 56.8611 47.4759 58.1404 48.8126C59.4197 50.1493 60.1281 51.9317 60.1154 53.7819Z" fill="white"/>
<path d="M65.1804 31.7737H41.3492C38.9911 31.7737 36.7296 32.7104 35.0622 34.3778C33.3948 36.0453 32.458 38.3067 32.458 40.6648V65.032C32.458 66.1996 32.688 67.3558 33.1348 68.4345C33.5816 69.5132 34.2365 70.4934 35.0622 71.319C35.8878 72.1446 36.8679 72.7995 37.9467 73.2464C39.0254 73.6932 40.1815 73.9231 41.3492 73.9231H65.1804C66.348 73.9231 67.5042 73.6932 68.5829 73.2464C69.6616 72.7995 70.6418 72.1446 71.4674 71.319C72.293 70.4934 72.9479 69.5132 73.3947 68.4345C73.8416 67.3558 74.0715 66.1996 74.0715 65.032V40.7088C74.0762 39.5378 73.8497 38.3774 73.405 37.2941C72.9604 36.2109 72.3063 35.226 71.4804 34.3959C70.6544 33.5659 69.6728 32.907 68.5917 32.457C67.5106 32.007 66.3514 31.7748 65.1804 31.7737ZM53.2626 65.6997C50.9035 65.753 48.582 65.1021 46.5944 63.8302C44.6068 62.5583 43.0433 60.723 42.1034 58.5585C41.1634 56.3941 40.8897 53.9987 41.3172 51.678C41.7446 49.3573 42.8538 47.2166 44.5032 45.5291C46.1527 43.8416 48.2675 42.6838 50.5778 42.2035C52.8881 41.7232 55.2892 41.9422 57.4745 42.8325C59.6598 43.7228 61.5303 45.244 62.8473 47.202C64.1642 49.1601 64.8679 51.4661 64.8685 53.8258C64.8877 55.368 64.6025 56.8987 64.0293 58.3305C63.4561 59.7623 62.6062 61.0669 61.5282 62.1698C60.4502 63.2728 59.1652 64.1522 57.7469 64.7579C56.3286 65.3636 54.8047 65.6837 53.2626 65.6997ZM66.16 41.9563C65.8701 41.9564 65.5832 41.8986 65.3159 41.7864C65.0487 41.6741 64.8065 41.5097 64.6036 41.3027C64.4007 41.0957 64.2411 40.8503 64.1342 40.5809C64.0273 40.3114 63.9753 40.0233 63.9811 39.7335C63.9811 39.144 64.2153 38.5786 64.6322 38.1618C65.049 37.7449 65.6144 37.5108 66.2039 37.5108C66.7935 37.5108 67.3588 37.7449 67.7757 38.1618C68.1925 38.5786 68.4267 39.144 68.4267 39.7335C68.4354 40.0474 68.3763 40.3593 68.2532 40.6482C68.1302 40.937 67.9462 41.1958 67.7138 41.4069C67.4814 41.618 67.2062 41.7763 66.9069 41.8712C66.6077 41.966 66.2914 41.9951 65.9799 41.9563H66.16Z" fill="white"/>
<path d="M53.2625 8.78571C41.6119 8.72745 30.4154 13.2998 22.136 21.4968C13.8566 29.6938 9.17257 40.844 9.11432 52.4946C9.05607 64.1452 13.6284 75.3418 21.8254 83.6212C30.0224 91.9006 41.1727 96.5846 52.8232 96.6428C58.592 96.6717 64.31 95.564 69.6507 93.383C74.9914 91.2021 79.8502 87.9905 83.9498 83.9318C88.0493 79.873 91.3093 75.0466 93.5435 69.7279C95.7778 64.4093 96.9426 58.7027 96.9715 52.9339C97.0003 47.1651 95.8926 41.4472 93.7116 36.1065C91.5307 30.7658 88.3191 25.9069 84.2604 21.8074C80.2016 17.7079 75.3752 14.4479 70.0565 12.2136C64.7379 9.97936 59.0313 8.81455 53.2625 8.78571ZM79.9403 64.5838C79.9526 66.5546 79.5735 68.5082 78.8251 70.3313C78.0767 72.1545 76.9738 73.811 75.5805 75.2048C74.1871 76.5986 72.5309 77.7019 70.708 78.4509C68.885 79.1998 66.9315 79.5795 64.9607 79.5678H41.5731C39.6024 79.5801 37.6487 79.201 35.8256 78.4526C34.0024 77.7042 32.3459 76.6013 30.9521 75.2079C29.5583 73.8146 28.455 72.1584 27.706 70.3354C26.9571 68.5124 26.5774 66.5589 26.5891 64.5882V41.1962C26.5769 39.2254 26.9559 37.2718 27.7043 35.4486C28.4527 33.6254 29.5556 31.9689 30.949 30.5752C32.3424 29.1814 33.9985 28.078 35.8215 27.3291C37.6445 26.5801 39.598 26.2005 41.5687 26.2122H64.9607C66.9311 26.2005 68.8843 26.58 70.7069 27.3287C72.5296 28.0773 74.1856 29.1803 75.5789 30.5736C76.9722 31.9669 78.0752 33.6229 78.8238 35.4456C79.5725 37.2683 79.952 39.2214 79.9403 41.1918V64.5838Z" fill="white"/>
</g>
</svg>
