<svg width="105" height="104" viewBox="0 0 105 104" fill="none" xmlns="http://www.w3.org/2000/svg">
<g opacity="0.6">
<path d="M52.4712 8.6189C28.6826 8.6189 9.37598 27.9256 9.37598 51.7141C9.37598 75.5027 28.6826 94.8094 52.4712 94.8094C76.2598 94.8094 95.5664 75.5027 95.5664 51.7141C95.5664 27.9256 76.2598 8.6189 52.4712 8.6189ZM72.4674 37.9237C71.821 44.7327 69.0198 61.2813 67.5976 68.9091C66.9943 72.1413 65.7876 73.2186 64.6672 73.3479C62.1676 73.5634 60.2714 71.7103 57.8581 70.1158C54.0657 67.6163 51.911 66.0648 48.2479 63.6515C43.9814 60.8503 46.7395 59.2989 49.196 56.7994C49.8424 56.1529 60.8748 46.1117 61.0903 45.2067C61.1202 45.0697 61.1162 44.9274 61.0787 44.7922C61.0411 44.657 60.9711 44.533 60.8748 44.431C60.6162 44.2156 60.2714 44.3017 59.9698 44.3448C59.5819 44.431 53.5486 48.4389 41.7836 56.3684C40.0598 57.532 38.5084 58.1353 37.1293 58.0922C35.5779 58.0491 32.6474 57.2303 30.4495 56.4977C27.7345 55.6358 25.6229 55.1617 25.7953 53.6534C25.8814 52.8777 26.9588 52.102 28.9843 51.2832C41.5681 45.8101 49.9286 42.1901 54.1088 40.4663C66.0893 35.4672 68.5457 34.6053 70.1834 34.6053C70.5281 34.6053 71.3469 34.6915 71.8641 35.1225C72.295 35.4672 72.4243 35.9413 72.4674 36.286C72.4243 36.5446 72.5105 37.3203 72.4674 37.9237Z" fill="white"/>
</g>
</svg>
