<svg width="96" height="96" viewBox="0 0 96 96" fill="none" xmlns="http://www.w3.org/2000/svg">
<g opacity="0.6">
<path d="M55.4908 46.9223L44.8351 41.9503C43.9053 41.5185 43.1414 42.0025 43.1414 43.032V52.3972C43.1414 53.4267 43.9053 53.9106 44.8351 53.4789L55.4861 48.5069C56.4207 48.0704 56.4207 47.3588 55.4908 46.9223ZM47.8857 2.16943C22.7315 2.16943 2.34058 22.5604 2.34058 47.7146C2.34058 72.8688 22.7315 93.2597 47.8857 93.2597C73.0399 93.2597 93.4309 72.8688 93.4309 47.7146C93.4309 22.5604 73.0399 2.16943 47.8857 2.16943ZM47.8857 66.2173C24.5723 66.2173 24.1643 64.1156 24.1643 47.7146C24.1643 31.3136 24.5723 29.2119 47.8857 29.2119C71.1991 29.2119 71.6071 31.3136 71.6071 47.7146C71.6071 64.1156 71.1991 66.2173 47.8857 66.2173Z" fill="white"/>
</g>
</svg>
